<svg width="445" height="80" viewBox="0 0 445 80" fill="none" xmlns="http://www.w3.org/2000/svg">
<path d="M381.734 60.8362C382.266 57.9407 383.156 55.4229 384.403 53.2828C385.657 51.1007 387.12 49.2963 388.79 47.8696C390.461 46.4428 392.279 45.3728 394.245 44.6594C396.21 43.946 398.153 43.5894 400.073 43.5894C404.553 43.5894 407.733 44.9741 409.613 47.7437C411.501 50.4713 411.928 54.6466 410.894 60.2697C410.848 60.5214 410.786 60.8571 410.709 61.2768C410.639 61.6544 410.552 62.0111 410.448 62.3468H387.664C387.295 65.7458 387.823 68.3266 389.248 70.089C390.673 71.8515 393.242 72.7327 396.954 72.7327C399.045 72.7327 400.825 72.5648 402.295 72.2291C403.815 71.8515 404.968 71.4948 405.755 71.1591L405.685 76.0687C404.89 76.4464 403.536 76.8451 401.625 77.2647C399.755 77.6843 397.669 77.8941 395.365 77.8941C392.464 77.8941 390.023 77.4745 388.044 76.6352C386.116 75.754 384.608 74.5581 383.52 73.0474C382.433 71.5367 381.737 69.7533 381.432 67.6971C381.178 65.599 381.278 63.312 381.734 60.8362ZM405.172 57.626C405.701 54.9823 405.416 52.8212 404.316 51.1427C403.267 49.4222 401.527 48.562 399.095 48.562C397.73 48.562 396.463 48.8347 395.296 49.3803C394.18 49.8838 393.182 50.5552 392.302 51.3945C391.422 52.2337 390.669 53.1989 390.042 54.2899C389.457 55.381 388.996 56.493 388.66 57.626H405.172Z" fill="black"/>
<path d="M337.109 45.8555C337.919 45.3939 339.096 44.9113 340.639 44.4077C342.225 43.9042 343.978 43.6524 345.898 43.6524C348.288 43.6524 350.322 44.072 352.003 44.9113C353.726 45.7506 355.088 46.9255 356.091 48.4362C357.093 49.9469 357.721 51.7513 357.975 53.8494C358.272 55.9476 358.189 58.2555 357.726 60.7733C357.24 63.417 356.394 65.8089 355.19 67.949C354.036 70.0472 352.599 71.8306 350.878 73.2993C349.158 74.768 347.2 75.901 345.005 76.6983C342.811 77.4956 340.433 77.8942 337.873 77.8942C335.1 77.8942 332.681 77.7054 330.618 77.3277C328.554 76.9501 326.874 76.5724 325.578 76.1947L334.201 29.3011L340.339 28.2939L337.109 45.8555ZM332.294 72.0404C332.86 72.2083 333.661 72.3761 334.697 72.544C335.783 72.6698 337.137 72.7328 338.759 72.7328C341.959 72.7328 344.708 71.7047 347.006 69.6485C349.312 67.5504 350.816 64.592 351.518 60.7733C351.826 59.0948 351.945 57.5212 351.874 56.0525C351.803 54.5838 351.48 53.3249 350.904 52.2758C350.337 51.1848 349.489 50.3455 348.359 49.758C347.281 49.1286 345.888 48.8139 344.181 48.8139C342.56 48.8139 341.016 49.0866 339.551 49.6321C338.085 50.1777 336.935 50.7442 336.102 51.3316L332.294 72.0404Z" fill="black"/>
<path d="M299.422 45.8555C300.232 45.3939 301.409 44.9113 302.952 44.4077C304.538 43.9042 306.291 43.6524 308.211 43.6524C310.6 43.6524 312.635 44.072 314.315 44.9113C316.038 45.7506 317.401 46.9255 318.403 48.4362C319.405 49.9469 320.033 51.7513 320.288 53.8494C320.584 55.9476 320.501 58.2555 320.038 60.7733C319.552 63.417 318.707 65.8089 317.503 67.949C316.349 70.0472 314.912 71.8306 313.191 73.2993C311.47 74.768 309.512 75.901 307.318 76.6983C305.123 77.4956 302.746 77.8942 300.186 77.8942C297.413 77.8942 294.994 77.7054 292.93 77.3277C290.866 76.9501 289.186 76.5724 287.89 76.1947L296.514 29.3011L302.651 28.2939L299.422 45.8555ZM294.606 72.0404C295.173 72.2083 295.974 72.3761 297.01 72.544C298.096 72.6698 299.45 72.7328 301.071 72.7328C304.271 72.7328 307.02 71.7047 309.318 69.6485C311.624 67.5504 313.128 64.592 313.83 60.7733C314.139 59.0948 314.258 57.5212 314.186 56.0525C314.115 54.5838 313.792 53.3249 313.217 52.2758C312.65 51.1848 311.801 50.3455 310.672 49.758C309.593 49.1286 308.2 48.8139 306.494 48.8139C304.872 48.8139 303.329 49.0866 301.863 49.6321C300.397 50.1777 299.248 50.7442 298.415 51.3316L294.606 72.0404Z" fill="black"/>
<path d="M277.481 77.139H271.529L277.548 44.4078H283.5L277.481 77.139ZM281.58 38.491C280.514 38.491 279.658 38.1553 279.014 37.4839C278.419 36.7705 278.23 35.8264 278.447 34.6514C278.663 33.4764 279.195 32.5532 280.044 31.8818C280.943 31.1685 281.926 30.8118 282.993 30.8118C284.059 30.8118 284.89 31.1685 285.484 31.8818C286.128 32.5532 286.343 33.4764 286.126 34.6514C285.91 35.8264 285.353 36.7705 284.454 37.4839C283.605 38.1553 282.647 38.491 281.58 38.491Z" fill="black"/>
<path d="M265.276 43.7153C265.788 43.7153 266.356 43.7573 266.981 43.8412C267.656 43.8832 268.302 43.9671 268.919 44.093C269.543 44.1769 270.1 44.2818 270.589 44.4077C271.128 44.4916 271.518 44.5756 271.759 44.6595L269.797 49.758C269.359 49.5902 268.604 49.4013 267.533 49.1915C266.513 48.9397 265.149 48.8138 263.443 48.8138C262.333 48.8138 261.201 48.9397 260.045 49.1915C258.94 49.4013 258.209 49.5482 257.852 49.6321L252.794 77.1389H246.842L252.606 45.7925C254.107 45.2889 255.941 44.8274 258.109 44.4077C260.284 43.9461 262.674 43.7153 265.276 43.7153Z" fill="black"/>
<path d="M231.417 77.8941C228.729 77.8941 226.438 77.4745 224.544 76.6352C222.693 75.796 221.203 74.621 220.073 73.1103C218.985 71.5997 218.289 69.8163 217.984 67.7601C217.688 65.6619 217.771 63.3539 218.234 60.8362C218.697 58.3184 219.484 56.0104 220.595 53.9123C221.749 51.8141 223.147 50.0097 224.79 48.499C226.441 46.9464 228.325 45.7505 230.442 44.9112C232.61 44.03 234.909 43.5894 237.341 43.5894C238.835 43.5894 240.305 43.7152 241.752 43.967C243.199 44.2188 244.555 44.6175 245.82 45.163L243.561 50.1356C242.743 49.716 241.759 49.3803 240.611 49.1285C239.505 48.8767 238.291 48.7508 236.968 48.7508C233.64 48.7508 230.891 49.7789 228.721 51.8351C226.594 53.8913 225.167 56.8916 224.442 60.8362C224.118 62.5986 224.013 64.2142 224.126 65.6829C224.283 67.1516 224.692 68.4105 225.352 69.4596C226.055 70.5086 227.035 71.3269 228.292 71.9144C229.558 72.4599 231.171 72.7327 233.134 72.7327C234.713 72.7327 236.169 72.5858 237.503 72.2921C238.837 71.9983 239.898 71.6836 240.685 71.3479L240.614 76.2576C240.234 76.4674 239.705 76.6772 239.026 76.887C238.355 77.0549 237.603 77.2017 236.769 77.3276C235.927 77.4955 235.03 77.6214 234.076 77.7053C233.156 77.8312 232.27 77.8941 231.417 77.8941Z" fill="black"/>
<path d="M194.516 72.7957C201.001 72.7957 204.645 70.6137 205.448 66.2495C205.695 64.9067 205.604 63.7737 205.177 62.8505C204.8 61.8854 204.182 61.0671 203.324 60.3957C202.474 59.6823 201.455 59.0738 200.268 58.5703C199.123 58.0667 197.893 57.5632 196.578 57.0596C195.057 56.5141 193.633 55.9056 192.305 55.2342C190.986 54.5208 189.878 53.7026 188.981 52.7794C188.092 51.8142 187.447 50.6812 187.046 49.3804C186.688 48.0795 186.679 46.5059 187.018 44.6595C187.72 40.8409 189.591 37.8615 192.63 35.7214C195.669 33.5813 199.513 32.5112 204.164 32.5112C206.852 32.5112 209.23 32.805 211.298 33.3925C213.416 33.938 214.926 34.5464 215.826 35.2178L212.928 40.1905C212.132 39.6449 210.885 39.1204 209.185 38.6169C207.536 38.0713 205.538 37.7986 203.192 37.7986C201.997 37.7986 200.865 37.9245 199.794 38.1762C198.724 38.428 197.759 38.8057 196.898 39.3092C196.037 39.8128 195.299 40.4632 194.683 41.2605C194.118 42.0159 193.738 42.9181 193.545 43.9671C193.329 45.1421 193.383 46.1282 193.705 46.9255C194.028 47.7228 194.558 48.4362 195.296 49.0656C196.041 49.6531 196.922 50.1986 197.939 50.7022C198.998 51.2058 200.164 51.7093 201.437 52.2129C203.218 52.9682 204.829 53.7235 206.268 54.4789C207.751 55.2342 208.972 56.1364 209.931 57.1855C210.932 58.2346 211.618 59.4935 211.988 60.9622C212.366 62.3889 212.365 64.1304 211.987 66.1866C211.285 70.0052 209.316 72.9426 206.079 74.9988C202.885 77.055 198.706 78.0831 193.544 78.0831C191.794 78.0831 190.196 77.9572 188.749 77.7054C187.337 77.4956 186.082 77.2438 184.984 76.9501C183.894 76.6144 182.953 76.2787 182.161 75.943C181.42 75.5653 180.838 75.2506 180.415 74.9988L183.197 69.9632C184.078 70.5088 185.459 71.1172 187.341 71.7886C189.223 72.46 191.615 72.7957 194.516 72.7957Z" fill="black"/>
<path d="M152.792 77.8941C150.104 77.8941 147.813 77.4745 145.919 76.6352C144.068 75.796 142.578 74.621 141.448 73.1103C140.36 71.5997 139.664 69.8163 139.359 67.7601C139.063 65.6619 139.146 63.3539 139.609 60.8362C140.072 58.3184 140.859 56.0104 141.97 53.9123C143.124 51.8141 144.522 50.0097 146.165 48.499C147.816 46.9464 149.7 45.7505 151.817 44.9112C153.985 44.03 156.284 43.5894 158.716 43.5894C160.21 43.5894 161.68 43.7152 163.127 43.967C164.574 44.2188 165.93 44.6175 167.195 45.163L164.936 50.1356C164.118 49.716 163.134 49.3803 161.986 49.1285C160.88 48.8767 159.666 48.7508 158.343 48.7508C155.015 48.7508 152.266 49.7789 150.096 51.8351C147.969 53.8913 146.542 56.8916 145.817 60.8362C145.493 62.5986 145.388 64.2142 145.501 65.6829C145.658 67.1516 146.067 68.4105 146.727 69.4596C147.43 70.5086 148.41 71.3269 149.667 71.9144C150.933 72.4599 152.546 72.7327 154.509 72.7327C156.088 72.7327 157.544 72.5858 158.878 72.2921C160.212 71.9983 161.273 71.6836 162.06 71.3479L161.989 76.2576C161.609 76.4674 161.08 76.6772 160.401 76.887C159.73 77.0549 158.978 77.2017 158.144 77.3276C157.302 77.4955 156.405 77.6214 155.451 77.7053C154.531 77.8312 153.645 77.8941 152.792 77.8941Z" fill="black"/>
<path d="M102.236 72.9215C104.668 72.9215 106.518 72.6068 107.786 71.9773C109.096 71.3479 109.879 70.3408 110.134 68.956C110.396 67.5293 110.028 66.3963 109.031 65.557C108.033 64.7177 106.308 63.7736 103.855 62.7245C102.668 62.2209 101.523 61.7174 100.421 61.2138C99.3696 60.6683 98.4827 60.0389 97.7606 59.3255C97.0384 58.6121 96.5139 57.7519 96.1871 56.7448C95.8603 55.7377 95.832 54.4997 96.1021 53.031C96.6345 50.1356 98.1431 47.8486 100.628 46.1701C103.12 44.4496 106.244 43.5894 109.998 43.5894C110.937 43.5894 111.864 43.6523 112.78 43.7782C113.703 43.8621 114.554 43.988 115.334 44.1559C116.122 44.2817 116.799 44.4286 117.365 44.5965C117.974 44.7643 118.438 44.9112 118.756 45.0371L116.742 50.0726C116.164 49.7369 115.223 49.4012 113.919 49.0655C112.623 48.6879 111.015 48.499 109.095 48.499C107.431 48.499 105.919 48.8347 104.558 49.5061C103.205 50.1356 102.401 51.1427 102.147 52.5275C102.015 53.2409 102.028 53.8703 102.183 54.4158C102.382 54.9613 102.716 55.4649 103.186 55.9265C103.706 56.3461 104.358 56.7448 105.142 57.1224C105.926 57.5001 106.876 57.8987 107.994 58.3184C109.464 58.9059 110.764 59.4933 111.894 60.0808C113.031 60.6263 113.956 61.2768 114.671 62.0321C115.428 62.7874 115.941 63.7106 116.21 64.8017C116.486 65.8507 116.481 67.1516 116.196 68.7042C115.64 71.7256 114.068 74.0126 111.478 75.5652C108.931 77.1178 105.546 77.8941 101.322 77.8941C98.3779 77.8941 96.1202 77.6424 94.5488 77.1388C92.9697 76.6772 91.9046 76.3205 91.3536 76.0687L93.3676 71.0332C94.0039 71.285 95.0225 71.6626 96.4232 72.1662C97.824 72.6697 99.7616 72.9215 102.236 72.9215Z" fill="black"/>
<path d="M83.6364 76.1947C82.2093 76.5304 80.3304 76.8871 77.9996 77.2648C75.7115 77.6424 73.0954 77.8313 70.1514 77.8313C67.5914 77.8313 65.5024 77.4746 63.8842 76.7612C62.2738 76.0059 61.0587 74.9568 60.239 73.614C59.4192 72.2712 58.9406 70.6976 58.8031 68.8931C58.6733 67.0468 58.8129 65.0116 59.2219 62.7875L62.6019 44.4077H68.5539L65.4054 61.5286C64.6723 65.5151 64.7876 68.3686 65.7512 70.0891C66.7148 71.8096 68.7113 72.6698 71.7406 72.6698C72.3806 72.6698 73.0458 72.6488 73.7362 72.6069C74.4266 72.5649 75.0743 72.5229 75.6793 72.481C76.2921 72.3971 76.837 72.3341 77.3141 72.2921C77.8415 72.2082 78.2196 72.1243 78.4484 72.0404L83.5299 44.4077H89.4819L83.6364 76.1947Z" fill="black"/>
<path d="M22.616 71.0962C22.3745 70.0891 22.0339 68.8092 21.5941 67.2566C21.1969 65.704 20.7589 64.0254 20.2801 62.221C19.8012 60.4166 19.2661 58.5702 18.6747 56.6819C18.1337 54.7516 17.6122 52.9472 17.1102 51.2687C16.6159 49.5482 16.1296 48.0165 15.6512 46.6737C15.2154 45.3309 14.8498 44.3028 14.5543 43.5894C13.1744 48.5411 11.8027 53.9123 10.4391 59.7032C9.08322 65.4522 7.75844 71.2641 6.46476 77.1389H0.38476C1.24994 73.3622 2.14031 69.5646 3.05587 65.7459C3.97915 61.8853 4.90833 58.1086 5.84341 54.4159C6.82887 50.6812 7.79504 47.0514 8.74192 43.5265C9.73146 40.0016 10.7076 36.6655 11.6704 33.5183H17.1104C17.9228 35.3647 18.7589 37.5468 19.6186 40.0645C20.4782 42.5823 21.3147 45.226 22.1281 47.9956C22.9492 50.7231 23.7237 53.4717 24.4517 56.2413C25.1875 58.9689 25.859 61.4657 26.4663 63.7317C27.907 61.4657 29.4968 58.9689 31.2357 56.2413C32.9824 53.4717 34.7678 50.7231 36.5921 47.9956C38.4241 45.226 40.2329 42.5823 42.0186 40.0645C43.8042 37.5468 45.4428 35.3647 46.9344 33.5183H52.3744C51.2399 47.5759 49.654 62.1161 47.6168 77.1389H41.5368C42.4038 71.2641 43.2166 65.4522 43.9751 59.7032C44.7413 53.9123 45.3451 48.5411 45.7863 43.5894C45.2285 44.3028 44.4634 45.3309 43.4912 46.6737C42.5616 48.0165 41.5332 49.5482 40.4062 51.2687C39.2868 52.9472 38.0803 54.7516 36.7867 56.6819C35.5434 58.5702 34.3506 60.4166 33.2081 62.221C32.0656 64.0254 30.9889 65.704 29.9781 67.2566C29.0099 68.8092 28.2198 70.0891 27.608 71.0962H22.616Z" fill="black"/>
<path d="M373.031 79.5107L370.511 79.1624L378.481 21.4759L379.742 21.6501L381.002 21.8242L373.031 79.5107Z" fill="black"/>
<path d="M369.371 79.0051L366.851 78.6568L374.821 20.9703L376.082 21.1444L377.342 21.3186L369.371 79.0051Z" fill="black"/>
<path d="M365.711 78.4993L363.191 78.151L371.162 20.4644L372.422 20.6386L373.682 20.8127L365.711 78.4993Z" fill="black"/>
<path d="M377.328 12.1285L380.893 20.8947L371.519 19.5993L377.328 12.1285Z" fill="black"/>
<path d="M407.433 10.6043L409.653 9.45444L407.433 10.6043ZM444.153 12.065C444.959 10.9445 444.705 9.38216 443.584 8.57543C442.464 7.7687 440.902 8.02307 440.095 9.14358L444.153 12.065ZM380.593 11.819C383.226 7.08232 388.218 4.95699 393.325 5.14508C398.504 5.33582 403.206 7.87938 405.213 11.7542L409.653 9.45444C406.609 3.57778 399.986 0.387024 393.509 0.148468C386.96 -0.0927398 379.965 2.65765 376.223 9.38959L380.593 11.819ZM405.213 11.7542C407.838 16.8205 413.995 21.7237 421.266 22.9779C428.799 24.2772 437.266 21.6306 444.153 12.065L440.095 9.14358C434.233 17.2859 427.612 18.9987 422.116 18.0507C416.359 17.0576 411.545 13.1068 409.653 9.45444L405.213 11.7542Z" fill="#4597F8"/>
<path d="M132.159 37.6353C131.775 36.525 132.047 35.1246 133 33.6792C133.954 32.2322 135.549 30.823 137.588 29.8684C139.627 28.9137 141.617 28.6447 143.166 28.9197C144.713 29.1944 145.743 29.9855 146.127 31.0959C146.511 32.2062 146.239 33.6066 145.286 35.052C144.332 36.4991 142.737 37.9082 140.698 38.8628C138.659 39.8175 136.669 40.0866 135.12 39.8115C133.572 39.5368 132.543 38.7457 132.159 37.6353Z" stroke="black" stroke-width="3"/>
<rect width="4.55298" height="40.8435" transform="matrix(-1 0 0.180862 -0.983508 128.24 78.9856)" fill="black"/>
</svg>
